<!-- Generated by IcoMoon.io -->
<svg version="1.1" xmlns="http://www.w3.org/2000/svg" width="34" height="32" viewBox="0 0 34 32">
<title>customer-logo-three</title>
<path d="M5.638 31.314l0.229 0.152-0.457 0.305-0.686 0.152c-0.229 0-0.381 0-0.61-0.152l-0.457-0.229-0.305-0.457c-0.070-0.169-0.111-0.365-0.111-0.571s0.041-0.402 0.115-0.582l-0.004 0.010 0.305-0.457c0.152-0.076 0.305-0.229 0.533-0.229 0.182-0.061 0.392-0.096 0.61-0.096s0.427 0.035 0.624 0.1l-0.014-0.004 0.457 0.229-0.152 0.152h-0.229l-0.076-0.076c-0.17-0.096-0.374-0.153-0.59-0.153-0.007 0-0.013 0-0.020 0h0.001l-0.457 0.076-0.381 0.229c0 0.152-0.152 0.229-0.229 0.381v0.914l0.229 0.305 0.381 0.229h0.686c0.206-0.023 0.388-0.105 0.535-0.23l-0.001 0.001h0.076zM10.438 30.476l-0.076 0.61-0.381 0.457-0.457 0.229c-0.381 0.152-0.838 0.152-1.295 0-0.175-0.054-0.326-0.132-0.461-0.232l0.004 0.003-0.305-0.457c-0.070-0.169-0.111-0.365-0.111-0.571s0.041-0.402 0.115-0.582l-0.004 0.010c0-0.152 0.152-0.305 0.305-0.457l0.457-0.229c0.457-0.152 0.914-0.152 1.295 0l0.457 0.229c0.282 0.239 0.459 0.594 0.459 0.989 0 0.027-0.001 0.054-0.002 0.081l0-0.004zM9.981 30.476v-0.381c-0.091-0.293-0.317-0.519-0.603-0.608l-0.006-0.002c-0.137-0.045-0.294-0.070-0.457-0.070s-0.32 0.026-0.468 0.073l0.011-0.003-0.381 0.229-0.229 0.381v0.838c0.091 0.293 0.317 0.519 0.603 0.608l0.006 0.002h0.914l0.305-0.229c0.152-0.076 0.229-0.229 0.229-0.381l0.076-0.381zM13.714 31.010v0.076l0.076-0.076v-0.152l1.143-1.676h0.533v2.667h-0.381v-2.133l-1.067 1.676-0.152 0.076h-0.152l-1.295-1.752v2.21h-0.381v-2.667h0.457l1.067 1.676 0.076 0.152zM17.676 30.857v0.99h-0.381v-2.667h1.448c0.152 0 0.229 0.152 0.381 0.229l0.152 0.229 0.076 0.381v0.305l-0.305 0.305-0.305 0.152-0.533 0.076h-0.533zM17.676 30.552h0.838l0.229-0.152 0.152-0.152v-0.533c0-0.076 0-0.152-0.152-0.229l-0.533-0.152h-0.533v1.143zM23.314 31.848h-0.457l-0.305-0.762h-1.448l-0.305 0.762h-0.457l1.219-2.667h0.457l1.295 2.667zM21.257 30.857h1.143l-0.457-1.067-0.152-0.305v0.305l-0.533 1.067zM25.143 29.181l1.829 2.057v-2.057h0.381v2.667h-0.305l-1.905-2.133v2.057h-0.381v-2.667h0.305zM30.4 30.781v1.067h-0.381v-1.067l-1.143-1.6h0.457l0.762 1.143c0.027 0.063 0.053 0.139 0.074 0.217l0.002 0.011 0.076-0.152 0.076-0.076 0.762-1.067v-0.076h0.457l-1.067 1.6zM13.486 24.61h0.61c2.763-1.068 5.060-2.826 6.753-5.066l0.028-0.038c1.676-2.286 2.514-4.876 2.438-7.619l-3.048-2.59c0.187 0.85 0.295 1.826 0.295 2.827 0 2.040-0.445 3.975-1.244 5.715l0.035-0.085c-1.297 2.845-3.307 5.173-5.807 6.82l-0.060 0.037z"></path>
<path d="M12.419 24.381v0.076c2.895-1.752 5.029-4.19 6.248-7.010s1.371-5.943 0.533-8.838l-4.343-3.81c1.374 2.346 2.186 5.165 2.186 8.175 0 4.436-1.763 8.46-4.628 11.41l0.004-0.004zM27.352 15.086c-0.836 3.143-2.673 5.772-5.143 7.592l-0.038 0.027-2.514 1.524c2.226-0.578 4.165-1.578 5.819-2.918l-0.029 0.022c1.524-1.295 2.895-2.895 3.657-4.648l-1.752-1.524z"></path>
<path d="M26.667 14.705l-2.59-2.286c0 2.59-0.838 5.029-2.362 7.162s-3.657 3.886-6.248 5.105l1.752-0.076c2.362-0.838 4.495-2.286 6.095-3.962 1.553-1.604 2.697-3.613 3.257-5.854l0.019-0.089zM12.8 3.2l-3.048-2.667c-2.708 0.883-4.984 2.47-6.685 4.546l-0.020 0.025c-1.553 1.923-2.498 4.392-2.514 7.082l-0 0.004c0 2.819 1.067 5.486 3.048 7.619 1.981 2.286 4.8 3.81 7.848 4.571 2.851-2.91 4.611-6.9 4.611-11.3 0-3.704-1.247-7.117-3.344-9.842l0.028 0.038zM33.6 14.248c0-3.276-1.524-6.476-4.19-8.762-2.712-2.329-6.265-3.747-10.15-3.747-1.822 0-3.572 0.312-5.198 0.886l0.109-0.034 18.514 16.152c0.61-1.448 0.914-2.971 0.914-4.495z"></path>
</svg>
