<!-- Generated by IcoMoon.io -->
<svg version="1.1" xmlns="http://www.w3.org/2000/svg" width="67" height="32" viewBox="0 0 67 32">
<title>customer-logo-six</title>
<path d="M33.707 15.218c-0.269-0.353-0.431-0.801-0.431-1.286 0-0.048 0.002-0.096 0.005-0.143l-0 0.006v-2.062c0-0.569 0.142-1.067 0.427-1.422 0.284-0.284 0.782-0.498 1.422-0.498 0.711 0 1.209 0.142 1.422 0.427 0.356 0.356 0.498 0.782 0.427 1.209v0.498h-1.138v-0.924c0-0.142-0.142-0.213-0.213-0.284-0.117-0.089-0.266-0.142-0.427-0.142v0c-0.161 0-0.309 0.053-0.428 0.144l0.002-0.001c-0.142 0-0.213 0.142-0.213 0.284v2.987l0.071 0.711 0.284 0.142 0.284 0.071c0.142 0 0.284 0 0.427-0.142l0.142-0.284v-0.996h1.209v0.498c0 0.427-0.071 0.853-0.356 1.28-0.284 0.284-0.711 0.427-1.422 0.427s-1.209-0.142-1.422-0.498zM38.613 15.218c-0.356-0.284-0.498-0.711-0.498-1.422v-2.133c0-0.569 0.142-1.067 0.498-1.422 0.284-0.213 0.711-0.427 1.422-0.427s1.209 0.213 1.493 0.498c0.284 0.284 0.427 0.711 0.427 1.422v2.133c0 0.569-0.142 1.067-0.427 1.422-0.284 0.284-0.782 0.427-1.422 0.427-0.711 0-1.209-0.142-1.493-0.498zM40.604 14.72l0.142-0.64v-2.631c0-0.213 0-0.427-0.142-0.64l-0.213-0.142c-0.053-0.014-0.115-0.023-0.178-0.023s-0.124 0.008-0.183 0.024l0.005-0.001c-0.043-0.009-0.092-0.014-0.142-0.014s-0.099 0.005-0.147 0.015l0.005-0.001-0.213 0.142c-0.142 0.213-0.213 0.427-0.142 0.64v2.631c0 0.213 0 0.427 0.142 0.711l0.213 0.142c0.095 0.039 0.205 0.062 0.32 0.062s0.225-0.023 0.326-0.064l-0.006 0.002 0.213-0.213zM43.378 9.956h1.28l0.924 3.911 0.996-3.982h1.209l0.071 5.76h-0.853l-0.142-3.982-0.924 3.982h-0.711l-0.924-3.982-0.213 3.982h-0.924l0.142-5.689zM49.28 9.956h1.991c1.138 0 1.707 0.498 1.707 1.564s-0.64 1.564-1.778 1.564h-0.711v2.56h-1.209v-5.689zM50.987 12.373h0.356l0.284-0.213 0.213-0.64-0.071-0.498-0.071-0.142-0.213-0.142c-0.142-0.071-0.356-0.142-0.498-0.071h-0.498v1.707h0.498zM54.756 9.956h1.209l1.422 5.689h-1.209l-0.213-1.351h-1.209l-0.284 1.351h-1.138l1.422-5.689zM55.822 13.653l-0.498-2.418-0.427 2.418h0.924zM58.382 9.956h0.853l1.636 3.2v-3.2h0.996v5.689h-0.782l-1.636-3.413v3.413h-1.138v-5.689zM64.213 13.511l-1.351-3.556h1.138l0.853 2.204 0.711-2.276h1.138l-1.351 3.556v2.204h-1.138v-2.133zM35.556 18.133v0.356h-0.924v2.276h-0.498v-2.276h-0.996v-0.356h2.418zM38.684 20.764h-0.498l-0.284-0.711h-1.351l-0.284 0.711h-0.427l1.209-2.631h0.427l1.209 2.631zM36.693 19.911h1.138l-0.498-1.067-0.071-0.284v0.142l-0.071 0.142-0.498 1.067zM40.747 20.551h0.213c0.153-0.002 0.3-0.028 0.437-0.074l-0.010 0.003 0.142-0.071v-0.64h-0.569v-0.213h0.924v0.996c-0.223 0.146-0.488 0.248-0.773 0.284l-0.009 0.001h-0.356c-0.213 0-0.427 0-0.64-0.142-0.189-0.042-0.356-0.116-0.503-0.216l0.005 0.003-0.284-0.427-0.142-0.569c0-0.213 0-0.356 0.142-0.569 0-0.142 0.142-0.284 0.284-0.427 0.142-0.071 0.284-0.213 0.498-0.213 0.231-0.097 0.499-0.153 0.781-0.153 0.076 0 0.15 0.004 0.224 0.012l-0.009-0.001c0.189 0.047 0.355 0.12 0.504 0.217l-0.006-0.004 0.213 0.142-0.071 0.142h-0.284l-0.213-0.142c-0.145-0.072-0.313-0.122-0.491-0.142l-0.007-0.001c-0.184 0.018-0.353 0.069-0.506 0.146l0.008-0.004-0.356 0.142-0.213 0.356v0.924c0 0.142 0.142 0.284 0.284 0.356 0.19 0.177 0.446 0.286 0.727 0.286 0.020 0 0.039-0.001 0.058-0.002l-0.003 0zM44.587 20.48h1.351v0.284h-1.707v-2.631h0.356v2.347zM47.289 20.764h-0.356v-2.631h0.427v2.631zM48.853 18.133v0.071l1.849 1.991v-2.062h0.356v2.631h-0.356l-1.778-1.991v2.062h-0.356v-2.631h0.213zM54.044 18.133v0.284h-1.422v0.924h1.138v0.284h-1.138v0.853h1.422v0.284h-1.849v-2.631h1.849zM10.809 1.92l18.347 4.48v15.644l-18.347-4.48v-15.644zM9.6 0.498v17.991l20.693 4.978v-17.778l-20.622-5.191z"></path>
<path d="M20.693 31.787l-20.693-5.049v-17.92l20.693 5.12v17.778z"></path>
<path d="M9.956 1.707l18.062 4.409-7.68 6.684-18.062-4.48 7.68-6.613zM9.6 0.569l-9.6 8.249 20.693 5.12 9.6-8.32-20.622-5.049zM21.831 30.791l8.533-7.324-8.533-2.062v9.387z"></path>
</svg>
