<!-- Generated by IcoMoon.io -->
<svg version="1.1" xmlns="http://www.w3.org/2000/svg" width="24" height="32" viewBox="0 0 24 32">
<title>customer-logo-two</title>
<path d="M9.841 1.811h0.483c0.725 0.060 1.449 0.121 2.174 0.302v-1.691l0.119 0.024c-1.041-0.244-2.118-0.395-3.259-0.446h-0.24c-0.009 0-0.018-0-0.027-0-3.352 0-6.49 0.92-9.091 2.475v17.147l-0.103 0.051c2.479-1.351 5.283-2.181 8.314-2.346h0.725v-1.811l-0.033 0.001c-2.341 0.068-4.594 0.482-6.548 1.146l-0.604 0.241v-13.464l0.242-0.121c1.992-0.906 4.166-1.509 6.279-1.509l-0.020 0c0.137-0.004 0.275-0.006 0.413-0.006s0.276 0.002 0.392 0.005h0.785zM12.86 3.562h1.208c0.003 0 0.007 0 0.011 0 3.363 0 6.522-0.873 9.263-2.404l-0.096 0.049v16.906c-2.576 1.509-5.673 2.4-8.979 2.4-1.245 0-2.461-0.127-3.636-0.367l0.116 0.020v-16.906c0.63 0.146 1.374 0.254 2.135 0.3l0.039 0.002zM21.494 3.683l-0.604 0.181-1.691 0.543c-1.527 0.403-3.28 0.635-5.088 0.635-0.398 0-0.793-0.011-1.186-0.033l0.054 0.002h-0.483v13.706h0.423l1.208 0.121c2.558-0.035 4.962-0.655 7.097-1.733l-0.093 0.043 0.302-0.121v-13.343z"></path>
<path d="M1.63 25.66c-0.158-0.147-0.37-0.238-0.603-0.241h-0.423c-0.356 0.128-0.605 0.462-0.605 0.854 0 0.018 0.001 0.036 0.002 0.054l-0-0.002v2.294c0 0.181 0 0.362 0.121 0.483 0 0.121 0.121 0.241 0.181 0.302l0.362 0.181h0.664c0.357-0.147 0.604-0.493 0.604-0.896 0-0.004-0-0.007-0-0.011v0.001-0.302h-0.604v0.362l-0.121 0.241-0.121 0.121h-0.121c-0.017 0.003-0.036 0.005-0.056 0.005-0.101 0-0.19-0.049-0.245-0.125l-0.001-0.001-0.060-0.302v-2.174l0.060-0.302c0.048-0.108 0.154-0.182 0.277-0.182 0.009 0 0.017 0 0.026 0.001l-0.001-0c0.109 0.014 0.199 0.083 0.241 0.179l0.001 0.002c0.121 0.060 0.121 0.181 0.121 0.302v0.181h0.604v-0.241c-0.007-0.282-0.121-0.536-0.302-0.725l0 0zM5.192 25.66c-0.184-0.148-0.421-0.238-0.679-0.238-0.124 0-0.244 0.021-0.355 0.059l0.008-0.002c-0.121 0-0.241 0.060-0.302 0.181l-0.241 0.302-0.060 0.423v2.234l0.060 0.423c0 0.121 0.121 0.241 0.241 0.302 0.060 0.121 0.181 0.181 0.302 0.181 0.108 0.042 0.232 0.066 0.362 0.066s0.255-0.024 0.369-0.068l-0.007 0.002c0.121 0 0.242-0.060 0.302-0.181 0.186-0.176 0.302-0.426 0.302-0.702 0-0.008-0-0.016-0-0.024l0 0.001v-2.234l-0.060-0.423c0-0.121-0.121-0.241-0.242-0.302zM4.951 28.619c0 0.002 0 0.004 0 0.006 0 0.115-0.046 0.22-0.121 0.296l0-0c-0.077 0.078-0.184 0.127-0.302 0.127s-0.225-0.049-0.302-0.127l-0-0c-0.075-0.076-0.121-0.181-0.121-0.296 0-0.002 0-0.004 0-0.006v0-2.234c-0-0.002-0-0.004-0-0.006 0-0.115 0.046-0.22 0.121-0.296l-0 0c0.077-0.078 0.184-0.127 0.302-0.127s0.225 0.049 0.302 0.127l0 0c0.075 0.076 0.121 0.181 0.121 0.296 0 0.002-0 0.004-0 0.006v-0 2.234zM9.902 29.585v-4.166h-0.604l-0.725 2.234-0.785-2.234h-0.604v4.166h0.604v-2.536l0.604 1.811h0.302l0.604-1.811v2.536h0.604zM13.283 25.721l-0.362-0.241h-1.328v4.106h0.604v-1.63h0.302c0.181 0 0.362 0 0.543-0.121l0.302-0.302 0.181-0.362c0.032-0.163 0.050-0.351 0.050-0.543s-0.018-0.38-0.053-0.562l0.003 0.019-0.242-0.362zM12.981 26.928l-0.060 0.302-0.181 0.121c-0.045 0.012-0.097 0.019-0.151 0.019s-0.106-0.007-0.155-0.020l0.004 0.001h-0.242v-1.389h0.302l0.242 0.060 0.181 0.181v0.785zM16.060 25.419h-0.483l-0.906 4.166h0.604l0.181-0.906h0.785l0.181 0.906h0.604l-0.966-4.166zM15.517 28.136l0.302-1.509 0.302 1.509h-0.604zM19.925 27.955l-1.026-2.596h-0.543v4.226h0.604v-2.475l0.966 2.475h0.604v-4.166h-0.604v2.536zM23.547 25.419l-0.483 1.63-0.543-1.63h-0.604l0.845 2.415v1.751h0.604v-1.811l0.785-2.355h-0.604zM0 30.792h0.302v0.785h0.181v-0.845h0.302v-0.121h-0.785v0.121zM2.415 30.611l-0.362 0.966h0.181l0.060-0.241h0.423l0.060 0.241h0.241l-0.423-0.966h-0.181zM2.415 31.215v-0.423l0.181 0.362h-0.302zM4.83 31.215h0.181v0.121l-0.242 0.060c-0.006 0.001-0.013 0.001-0.020 0.001-0.062 0-0.118-0.023-0.161-0.061l0 0-0.121-0.241c0-0.241 0.121-0.362 0.302-0.362 0.018-0.007 0.039-0.010 0.061-0.010 0.1 0 0.181 0.081 0.181 0.181 0 0.004-0 0.007-0 0.011l0-0h0.181c0-0.241-0.181-0.362-0.423-0.362l-0.362 0.121c-0.080 0.086-0.13 0.202-0.13 0.329 0 0.033 0.003 0.065 0.010 0.096l-0.001-0.003c0 0.121 0 0.241 0.121 0.362 0.085 0.076 0.198 0.122 0.321 0.122 0.014 0 0.029-0.001 0.043-0.002l-0.002 0c0.181 0 0.302 0 0.423-0.181v-0.362h-0.423v0.181zM7.245 30.611h-0.242v0.966h0.664v-0.181h-0.423v-0.785zM9.238 30.611h-0.181v0.966h0.181v-0.966zM11.23 31.215l-0.362-0.604h-0.181v0.966h0.181v-0.604l0.362 0.604h0.181v-0.966h-0.181v0.604zM13.041 31.155h0.483v-0.181h-0.483v-0.241h0.543v-0.121h-0.725v0.966h0.725v-0.181h-0.543v-0.241zM17.509 30.974h-0.423v-0.362h-0.181v0.966h0.181v-0.423h0.362v0.423h0.181v-0.966h-0.121v0.362zM19.321 31.155h0.423v-0.181h-0.423v-0.241h0.543v-0.121h-0.725v0.966h0.725v-0.181h-0.543v-0.241zM21.736 31.155c0.181 0 0.241-0.121 0.241-0.302 0.001-0.006 0.001-0.013 0.001-0.020 0-0.062-0.023-0.118-0.061-0.161l0 0c-0.073-0.039-0.161-0.063-0.253-0.063-0.017 0-0.034 0.001-0.051 0.002l0.002-0h-0.423v0.966h0.241v-0.423h0.121l0.060 0.121 0.241 0.302h0.241l-0.121-0.241-0.241-0.181zM21.555 30.974h-0.121v-0.181h0.302c0.067 0 0.121 0.054 0.121 0.121s-0.054 0.121-0.121 0.121v0c-0.027 0.004-0.059 0.007-0.091 0.007s-0.063-0.002-0.094-0.007l0.003 0zM23.608 31.155h0.483v-0.181h-0.483v-0.241h0.543v-0.121h-0.725v0.966h0.725v-0.181h-0.543v-0.241z"></path>
</svg>
