<!-- Generated by IcoMoon.io -->
<svg version="1.1" xmlns="http://www.w3.org/2000/svg" width="28" height="32" viewBox="0 0 28 32">
<title>customer-logo-one</title>
<path d="M4.085 0l4.766 4.494h-8.851v21.923h23.149v-8.374l4.766 4.494v-22.536h-23.83zM22.945 17.498l-13.549-12.732h13.549v12.8zM18.723 23.217h-15.047v-14.706h1.021v13.685h14.026v1.021zM7.217 29.277h0.477l-0.817 1.498v0.953h-0.409v-0.953l-0.817-1.498h0.477l0.545 1.226 0.545-1.157zM7.898 31.796l0.204-0.613h0.953l0.204 0.613h0.409l-0.817-2.519h-0.409l-0.953 2.519h0.409zM8.579 29.889l0.34 0.953h-0.681l0.34-0.953zM10.826 30.774l-0.136 0.34c0 0.204 0.068 0.34 0.272 0.477 0.136 0.136 0.272 0.204 0.545 0.204 0.204 0 0.409 0 0.613-0.204l0.136 0.204h0.477l-0.34-0.477c0.136-0.136 0.204-0.409 0.204-0.681h-0.34c0 0.136 0 0.272-0.136 0.409l-0.477-0.545 0.204-0.136 0.204-0.204c0.056-0.084 0.089-0.187 0.089-0.298 0-0.149-0.060-0.284-0.157-0.383l0 0c-0.104-0.085-0.239-0.137-0.386-0.137-0.008 0-0.016 0-0.024 0l0.001-0c-0.019-0.002-0.042-0.003-0.064-0.003-0.156 0-0.299 0.052-0.414 0.14l0.002-0.001c-0.136 0.136-0.204 0.272-0.204 0.477l0.068 0.204 0.204 0.34c-0.131 0.075-0.244 0.166-0.339 0.271l-0.001 0.001zM11.915 31.319c-0.112 0.085-0.254 0.136-0.409 0.136v0l-0.272-0.068c-0.083-0.063-0.136-0.161-0.136-0.272v0c0-0.136 0.068-0.272 0.204-0.34h0.068l0.545 0.545zM11.438 30.298l-0.136-0.409v-0.204h0.477l0.068 0.204-0.068 0.204-0.272 0.204zM15.387 31.591c-0.136 0.136-0.34 0.204-0.681 0.204l-0.477-0.136c-0.136-0.068-0.272-0.204-0.34-0.409-0.136-0.136-0.136-0.34-0.136-0.545v-0.204l0 0.004c-0.002-0.028-0.003-0.057-0.003-0.086 0-0.218 0.051-0.424 0.139-0.599l0.34-0.34c0.136-0.136 0.34-0.136 0.477-0.136l0.681 0.136c0.204 0.204 0.272 0.409 0.272 0.681h-0.409l-0.136-0.409-0.34-0.068c-0.204 0-0.34 0-0.409 0.136-0.136 0.136-0.204 0.34-0.204 0.613v0.204l0.136 0.613 0.001 0.002c0.086 0.123 0.229 0.203 0.39 0.203 0.006 0 0.012-0 0.017-0 0.204 0 0.34 0 0.409-0.136 0.136-0.068 0.136-0.136 0.136-0.34h0.409c0 0.272-0.068 0.477-0.272 0.613zM17.906 31.251l0.068-0.681v-0.068c0-0.272 0-0.477-0.136-0.681-0.166-0.285-0.469-0.473-0.817-0.477h-0c-0.204 0-0.409 0-0.545 0.136-0.136 0.068-0.272 0.204-0.34 0.409-0.136 0.136-0.136 0.34-0.136 0.613v0.136c0 0.204 0 0.409 0.136 0.613 0 0.204 0.204 0.34 0.34 0.409l0.545 0.136c0.204 0 0.34 0 0.477-0.136 0.204-0.068 0.272-0.272 0.409-0.409zM17.43 29.889l0.136 0.613v0.136c0 0.272 0 0.477-0.136 0.613l-0.409 0.204c-0.024 0.004-0.052 0.007-0.081 0.007-0.164 0-0.309-0.083-0.395-0.209l-0.001-0.002-0.136-0.681v-0.068c0-0.272 0-0.477 0.136-0.681l0.477-0.136c0.136 0 0.272 0 0.409 0.204z"></path>
</svg>
