<!-- Generated by IcoMoon.io -->
<svg version="1.1" xmlns="http://www.w3.org/2000/svg" width="1809" height="1024" viewBox="0 0 1809 1024">
<title>twitter-icon</title>
<g id="icomoon-ignore">
</g>
<path d="M411.307 360.107c-40.96 0-73.387 29.013-73.387 66.56 0 35.84 34.133 64.853 73.387 64.853 40.96 0 75.093-29.013 75.093-64.853 0-37.547-34.133-66.56-75.093-66.56zM959.147 339.627c0-51.2-22.187-98.987-63.147-136.533-39.253-34.133-93.867-54.613-151.893-54.613-56.32 0-110.933 20.48-151.893 56.32-39.253 34.133-61.44 85.333-61.44 134.827v278.187s426.667-42.667 426.667-278.187zM187.733 708.267c0 35.84 17.067 68.267 44.373 93.867 27.735 24.167 64.165 38.988 104.051 39.253h0.056c40.96 0 78.507-13.653 105.813-39.253 26.27-22.458 43.162-55.222 44.368-91.956l0.005-0.204v-194.56s-298.667 29.013-298.667 192.853zM336.213 742.4c-6.827 0-15.36 0-20.48-5.12-6.827-3.413-11.947-8.533-15.36-15.36-1.707-5.12-3.413-13.653-1.707-18.773 0-6.827 5.12-13.653 10.24-17.067 5.12-6.827 13.653-10.24 20.48-10.24h22.187c6.827 3.413 13.653 8.533 17.067 13.653 4.486 5.518 7.203 12.63 7.203 20.378 0 9.498-4.083 18.042-10.59 23.973l-0.026 0.023-13.653 6.827-15.36 3.413z"></path>
</svg>
