<!-- Generated by IcoMoon.io -->
<svg version="1.1" xmlns="http://www.w3.org/2000/svg" width="43" height="32" viewBox="0 0 43 32">
<title>customer-logo-five</title>
<path d="M3.268 26.349c0.136 0.204 0.204 0.477 0.204 0.681l-0.068 0.477-0.272 0.34c-0.34 0.272-0.749 0.34-1.157 0.34h-1.974v-4.221h1.906c0.409 0 0.817 0.068 1.089 0.272l0.272 0.34 0.136 0.477c0 0.204-0.068 0.477-0.272 0.681l-0.545 0.272c0.272 0 0.477 0.204 0.681 0.34zM0.953 25.736h0.817c0.136 0 0.34 0 0.477-0.136l0.136-0.204 0.068-0.204v-0.204l-0.204-0.204c-0.136-0.136-0.34-0.136-0.545-0.136h-0.749v1.089zM2.315 27.37l0.204-0.204v-0.477l-0.136-0.204c-0.204-0.136-0.409-0.136-0.613-0.136h-0.817v1.157h0.817c0.204 0 0.408 0 0.613-0.136zM7.217 28.187l-1.089-1.634h-0.409v1.634h-0.953v-4.221h1.77c0.477 0 0.885 0.136 1.226 0.34 0.272 0.272 0.409 0.545 0.409 0.885s-0.068 0.681-0.272 0.885c-0.204 0.204-0.545 0.34-0.817 0.409l1.157 1.702h-1.021zM5.719 25.94h0.749c0.545 0 0.817-0.204 0.817-0.613l-0.068-0.272c-0.035-0.079-0.080-0.147-0.136-0.204l0 0-0.613-0.204h-0.749v1.362zM12.255 27.37h-1.838l-0.34 0.817h-0.953l1.702-4.153h1.021l1.702 4.153h-0.953l-0.34-0.817zM11.983 26.689l-0.681-1.77-0.681 1.77h1.362zM18.587 28.187h-0.885l-2.043-2.86v2.86h-0.953v-4.221h0.885l2.043 2.86v-2.86h0.953v4.221zM23.83 27.234c-0.136 0.272-0.477 0.545-0.817 0.681-0.409 0.204-0.817 0.272-1.294 0.272h-1.634v-4.221h1.702c0.477 0 0.885 0.068 1.362 0.272 0.272 0.136 0.613 0.409 0.749 0.681 0.183 0.324 0.291 0.711 0.291 1.123s-0.108 0.8-0.297 1.135l0.006-0.012zM22.808 27.098c0.249-0.267 0.402-0.626 0.402-1.021s-0.153-0.755-0.403-1.022l0.001 0.001c-0.34-0.272-0.681-0.409-1.157-0.34h-0.681v2.723h0.681c0.409 0 0.817-0.136 1.157-0.34zM12.868 0.545s11.847 4.085 11.574 10.008v10.077s-11.847-4.085-11.574-10.077v-10.008zM35.064 18.247c2.247-1.362 4.766-2.247 7.489-2.519v-3.132c-3.096 1.094-5.656 3.061-7.457 5.604l-0.032 0.047z"></path>
<path d="M33.702 19.2c1.838-3.404 5.038-5.992 8.851-7.285v-9.055s-16.885 5.855-16.545 14.298v14.298l1.974-0.749v-1.362c0.409-3.949 2.451-7.557 5.719-10.145z"></path>
<path d="M32.068 24.511c0.136-0.953 0.272-1.974 0.613-2.928-2.142 2.259-3.495 5.285-3.608 8.625l-0.001 0.022 3.268-1.566c-0.272-1.362-0.409-2.723-0.272-4.085zM32.749 24.511c-0.037 0.366-0.058 0.792-0.058 1.222 0 0.917 0.095 1.812 0.277 2.675l-0.015-0.084c4.63-2.519 9.804-6.468 9.6-11.166v-0.409c-3.268 0.34-6.4 1.634-8.783 3.745-0.545 1.362-0.885 2.723-1.021 4.085z"></path>
</svg>
