<svg aria-hidden="true" style="position:absolute;width:0;height:0;overflow:hidden" xmlns="http://www.w3.org/2000/svg"><defs>
<symbol id="antenna" viewBox="0 0 32 32">
<path fill="#212121" style="fill:var(--color1, #212121)" d="m30.8 22.1-8.5-8.5 1-4.6.7.1a2.2 2.2 0 1 0-2-1.4l-5 .6L9 .2a.5.5 0 0 0-.4-.2c-.1 0-.3 0-.4.2L6.7 1.7c-.2.2-.2.5 0 .7l.8.8A15 15 0 0 0 10.2 21v6.7H3.6a2.7 2.7 0 0 0-2.6 2.7v1c0 .4.2.6.5.6h24.5c.3 0 .6-.2.6-.5v-1.1c0-1.5-1.2-2.7-2.7-2.7h-6.4V25a15 15 0 0 0 10-1.5l1 .9.3.1.4-.1 1.5-1.5c.2-.3.2-.6 0-.8zM23.3 6.2a1 1 0 1 1 .7 1.9 1 1 0 0 1-.7-1.9zM22 9.7l-.6 3-1.1-1.2L22 9.7zm-.6-.9-1.9 2L18 9.2l3.4-.5zm2.6 20c.9 0 1.6.7 1.6 1.6v.5H2.1v-.5c0-.9.8-1.6 1.6-1.6H24zm-7.5-2.1v1h-5.3v-1h5.3zm-5.3-1.1v-4c0-1.3 1.2-2.4 2.7-2.4s2.6 1 2.6 2.3v4.1h-5.3zm6.4-1.7v-2.4c0-1.8-1.7-3.4-3.7-3.4-1.4 0-2.6.7-3.3 1.8-4-4.3-5-10.6-2.3-15.9L27 22.7a13.8 13.8 0 0 1-9.3 1.2zm11.3-.7L7.9 2l.7-.7 8 8 13 13.2-.7.7z"/><path fill="#2196f3" style="fill:var(--color2, #2196f3)" d="M13.9 20.3a1.6 1.6 0 1 0 0 3.2 1.6 1.6 0 1 0 0-3.2zm.3 2-.3.1a.5.5 0 0 1 0-1 .5.5 0 0 1 .3.8z"/></symbol>

<symbol id="astronaut" viewBox="0 0 32 32"><path fill="#2196f3" style="fill:var(--color2, #2196f3)" d="M32 4.5c0-.2-.3-.3-.5-.3l-1.9-.3-.8-1.8c-.2-.3-.8-.3-1 0L27 4l-1.8.3a.5.5 0 0 0-.3.9L26 6.4l-.3 2a.5.5 0 0 0 .8.5l1.7-1L30 9h.2a.5.5 0 0 0 .6-.6l-.4-1.9L31.8 5c.2 0 .2-.3.2-.5zM29.5 6l-.2.4.2 1.2-1-.6h-.4l-1 .6.1-1.2V6l-1-.8 1.2-.2c.2 0 .3-.1.4-.3l.5-1 .5 1 .4.2 1.1.2-.8.8zm-3.4 14.6h-1v1h1v-1zm0 2.2h-1v1h1v-1zm1.1-1.1h-1v1h1v-1zm-2.1 0H24v1h1v-1zm-2.7 4.8h-1v1h1v-1zm0 2.1h-1v1h1v-1zm1-1h-1v1h1v-1zm-2 0h-1.1v1h1v-1zM16 24.1h-1v1.1h1v-1zm0 2.2h-1v1h1v-1zm1-1h-1v1h1v-1zm-2 0h-1.1v1h1v-1zM5.8 6H4.8v1h1v-1zm0 2.1H4.8v1.1h1v-1zM7 7.2H5.8v1h1v-1zm-2.2 0h-1v1h1v-1z"/><path fill="#212121" style="fill:var(--color1, #212121)" d="M24.7 14.2c-.3-.4-.7-.7-1.1-.8-.5 0-1 .1-1.4.4l-1.3 1-1.9 1.4-1.4-.6a7 7 0 0 0-2.8-13.2A7 7 0 0 0 9 13H6l-3.3 1.6-1.9 1a1.8 1.8 0 1 0 1.8 3l1.3-.7 2.3-1.2h1.4l-5.4 5.4-1.4 1.3a1.6 1.6 0 0 0 0 2.3 1.6 1.6 0 0 0 2.4 0l1.4-1.3 1.7-1.2.9.9-1.8 1.7-1.3 1.4a1.6 1.6 0 0 0 0 2.3 1.7 1.7 0 0 0 2.4 0l3.4-3.4 1-1 5.2-5.7 3.5.5a.5.5 0 0 0 .2 0h.1l3.2-2.2h.1l1.3-1.3a1.8 1.8 0 0 0 .2-2.3zM2.2 17.8h-.6a.7.7 0 0 1-.2-1.3l1.3-.6.3 1 .2.4-1 .4zM5.7 16l-1.6.7-.3-.7-.1-.5 2-1V16zm15-6.7c0 1-.1 1.8-.5 2.6l-4.2-2c0-.5-.3-1-.8-1.3l1.5-4.9c2.4.8 4.1 3 4.1 5.6zM9 9.3a5.9 5.9 0 0 1 6.6-5.8L14 8.2c-1 0-1.9.8-1.9 1.9v.2a1.8 1.8 0 0 0 3.5.7l3.9 1.8A5.9 5.9 0 0 1 9 9.3zm6 .8c0 .5-.4.8-.9.8s-.8-.3-.8-.8.4-.8.8-.8.8.4.8.8zm-12.5 15c-.2.3-.6.3-.9 0a.6.6 0 0 1 0-.8l1-1 .9.9-1 1zm3.2 3.7c-.2.3-.6.3-.8 0a.6.6 0 0 1 0-.8l1-.9.4.4.4.4-1 1zm3.5-3.4-1.7 1.8-.5-.4-.4-.5 1.8-1.8v-.3h.1V24l-.1-.2-1.6-1.6h-.1l-.1-.1h-.7l-1.7 1.4-1-1 2.5-2.3 4.4 4.3-1 .9zm6.8-7-.4.1-4.8 5.3-4.4-4.3 2.9-2.8.1-.4c0-.3-.2-.5-.5-.5H6.7v-1.6h3a7 7 0 0 0 6.4 2l2.5 1 .1.8.2.9-3-.5zm4 .2-.3-1.6 1.5-1 .4.4.5.8-2 1.4zm3.8-2.9-.8.8-1-1.2.9-.6c.1-.2.3-.2.5-.2a.7.7 0 0 1 .5 1.2z"/><path fill="#212121" style="fill:var(--color1, #212121)" d="m13.6 18.6-2.2-2.2a.5.5 0 0 0-.7 0l-2.2 2.2a.5.5 0 0 0 0 .7l2.2 2.1.3.2c.1 0 .3 0 .4-.2l2.2-2.1a.5.5 0 0 0 0-.7zm-2.5 1.7-1.4-1.4 1.4-1.3 1.3 1.3-1.3 1.4zM17 5 17 6.1s1.8.5 1.8 2.2h1c0-2-1.7-3-2.6-3.2zm2.6 4.3h-1v1h1v-1z"/></symbol>

<symbol id="clock" viewBox="0 0 32 32"><path fill="#212121" style="fill:var(--color1, #212121)" d="M31.3 15.3a15.3 15.3 0 1 0-19.8 14.6h.4l.2-.4 4-12.3a2 2 0 1 0-1-3.6l-5-5.1a.6.6 0 0 0-1 .9l5.2 5c-.4.9-.2 1.8.5 2.4l-3.7 11.7a14 14 0 1 1 10.6-.4l-.4-1.9a.6.6 0 0 0-1-.3l-3.9 3.4a.6.6 0 0 0 .2 1.1l5 1.6a.6.6 0 0 0 .8-.8l-.4-1.8c5.6-2.4 9.3-8 9.3-14.1zM16 14.7a.6.6 0 1 1 0 1.2.6.6 0 0 1 0-1.2zm2 14.8 2.3-2 .6 3-2.8-1z"/><path fill="#2196f3" style="fill:var(--color2, #2196f3)" d="M15.4 3.2v1.3a.6.6 0 1 0 1.2 0V3.2a.6.6 0 0 0-1.2 0zM3.9 14.7a.6.6 0 0 0 0 1.2h1.3a.6.6 0 1 0 0-1.2H3.9zM28.1 16a.6.6 0 1 0 0-1.3h-1.3a.6.6 0 0 0 0 1.2h1.3z"/></symbol>

<symbol id="customer-logo-five" viewBox="0 0 43 32"><path d="m3.3 26.3.2.7-.1.5-.3.3c-.3.3-.7.4-1.1.4H0V24h2c.3 0 .7 0 1 .2l.3.4.1.5c0 .2 0 .4-.3.6l-.5.3c.3 0 .5.2.7.3zM1 25.7h.8l.4-.1.2-.2V25l-.2-.2c0-.2-.3-.2-.5-.2H1v1.1zm1.3 1.7.2-.2v-.5l-.1-.2c-.2-.2-.4-.2-.6-.2H1v1.2h.8l.6-.1zm5 .8L6 26.6h-.4v1.6h-1V24h1.8c.5 0 1 .1 1.3.3.2.3.4.6.4.9s-.1.7-.3.9l-.8.4 1.1 1.7h-1zm-1.6-2.3h.8c.5 0 .8-.2.8-.6v-.2l-.2-.2-.6-.3h-.8V26zm6.6 1.5h-1.9l-.3.8H9l1.7-4.2h1l1.7 4.2h-.9l-.3-.8zm-.3-.7-.7-1.8-.7 1.8H12zm6.6 1.5h-.9l-2-2.9v2.9h-1V24h.9l2 2.8V24h1v4.2zm5.2-1c-.1.3-.4.6-.8.7-.4.2-.8.3-1.3.3h-1.6V24h1.7c.5 0 .9 0 1.3.2.3.2.7.4.8.7a2.3 2.3 0 0 1 0 2.3zm-1-.1a1.5 1.5 0 0 0 0-2c-.3-.3-.7-.5-1.1-.4H21v2.7h.7c.4 0 .8-.1 1.1-.3zM12.8.5s12 4.1 11.6 10v10.1s-11.8-4-11.5-10V.6zm22.3 17.7c2.2-1.3 4.7-2.2 7.5-2.5v-3.1c-3.1 1-5.7 3-7.5 5.6z"/><path d="M33.7 19.2c1.8-3.4 5-6 8.9-7.3V3S25.6 8.7 26 17.2v14.3l2-.8v-1.4c.4-3.9 2.4-7.5 5.7-10.1z"/><path d="M32 24.5c.2-1 .3-2 .7-3a13.2 13.2 0 0 0-3.6 8.7l3.2-1.5c-.2-1.4-.4-2.8-.2-4.1zm.7 0a12.5 12.5 0 0 0 .3 4v-.2c4.6-2.5 9.8-6.4 9.6-11.1v-.5c-3.3.4-6.4 1.7-8.8 3.8a15 15 0 0 0-1 4z"/></symbol>

<symbol id="customer-logo-four" viewBox="0 0 65 32"><path d="M10 10c-1.8 0-3.3 1.3-3.3 3 0 1.5 1.5 2.9 3.3 2.9 1.8 0 3.3-1.4 3.3-3s-1.5-3-3.3-3zM34.4 9c0-2.2-1-4.4-2.8-6S27.4.5 25 .5c-2.6 0-5 1-6.8 2.5s-2.8 3.8-2.8 6v12.5s19.1-2 19.1-12.5zM0 25.6c0 1.5.7 3 2 4.1s2.9 1.8 4.7 1.8c1.7 0 3.4-.6 4.7-1.8s2-2.6 2-4.1v-8.7S0 18.2 0 25.6zM6.7 27c-.4 0-.7 0-1-.2l-.7-.7v-1c0-.3.2-.5.4-.7l1-.5 1 .1c.3.1.5.3.7.6a1.4 1.4 0 0 1-.2 2l-.6.3-.6.1zM20.1 26.3h-1.3v1.3h-.6v-3.3h2v.6h-1.4v.8h1.3v.6zm3.2-.3-.1.9c-.1.3-.3.4-.5.5-.2.2-.5.2-.7.2-.3 0-.5 0-.8-.2l-.4-.5a2 2 0 0 1-.2-.8v-.2c0-.3 0-.6.2-.9a1.3 1.3 0 0 1 1.2-.7c.2 0 .5 0 .7.2l.5.5.1.9v.1zm-.6-.1c0-.4 0-.6-.2-.8s-.3-.3-.5-.3c-.3 0-.4.1-.6.3l-.1.8v.1l.1.8c.1.2.3.3.6.3.2 0 .4-.1.5-.3l.2-.8V26zm2.8.8-.1-.3-.5-.2-.5-.2c-.4-.2-.6-.5-.6-.8l.1-.5.5-.3.6-.1.6.1.4.4.2.5h-.7l-.1-.4h-.8l-.1.3.1.3.5.2c.4 0 .7.2.8.4l.3.6c0 .3-.1.5-.3.7-.2.2-.5.2-.9.2l-.7-.1-.4-.4a1 1 0 0 1-.2-.5h.7c0 .3.2.5.6.5h.4l.1-.4zm3.6-1.8h-1v2.7h-.7v-2.7h-1v-.6h2.7v.6zm2.3 1.3h-1.3v.8h1.6v.6h-2.2v-3.3h2.1v.6h-1.5v.8h1.3v.5zm1.9.2h-.6v1.2H32v-3.3h1.3c.3 0 .6.1.8.3s.4.4.4.7c0 .2 0 .4-.2.6a1 1 0 0 1-.4.3l.7 1.4h-.7l-.6-1.2zm-.6-.5h.6c.1 0 .3 0 .3-.2l.2-.3-.1-.4-.4-.1h-.6v1zm4 .5v1.2h-.6v-3.3h1.3c.2 0 .4 0 .6.2.2 0 .3.2.4.4l.2.5c0 .3-.1.6-.3.8l-1 .2h-.5zm0-.5h.7l.4-.1.1-.4-.1-.4a.5.5 0 0 0-.4-.1h-.6v1zm4.3.3h-1.3v.8h1.5v.6h-2.1v-3.3h2.1v.6h-1.5v.8H41v.5zm3.1-1.3h-1v2.7h-.6v-2.7h-1v-.6H44v.6zm2.4 1.3h-1.3v.8h1.5v.6h-2.2v-3.3h2.2v.6h-1.5v.8h1.3v.5zm1.8.2h-.6v1.2h-.6v-3.3h1.2c.4 0 .7.1.9.3s.3.4.3.7c0 .2 0 .4-.2.6a1 1 0 0 1-.4.3l.7 1.4H49l-.6-1.2zm-.6-.5h.6c.2 0 .3 0 .4-.2l.1-.3-.1-.4-.4-.1h-.6v1zm4 .8s0-.2-.2-.3l-.4-.2-.6-.2c-.4-.2-.5-.5-.5-.8l.1-.5.4-.3.7-.1.6.1.4.4.2.5h-.7c0-.2 0-.3-.2-.4h-.7l-.2.3c0 .1 0 .2.2.3l.5.2c.3 0 .6.2.8.4s.2.4.2.6c0 .3 0 .5-.3.7-.2.2-.5.2-.8.2l-.7-.1-.5-.4a1 1 0 0 1-.1-.5h.6c0 .3.2.5.7.5h.3l.2-.4z"/></symbol>

<symbol id="customer-logo-one" viewBox="0 0 28 32"><path d="M4 0 9 4.5H0v22h23.1V18l4.8 4.5V0H4.1zm19 17.5L9.3 4.8h13.5v12.8zm-4.3 5.7h-15V8.5h1v13.7h14v1zm-11.5 6h.5l-.8 1.6v1h-.4v-1l-.8-1.5H6l.6 1.2.5-1.2zm.7 2.6.2-.6h1l.2.6h.4l-.8-2.5h-.5l-1 2.5H8zm.7-2 .3 1h-.7l.4-1zm2.2 1-.1.3c0 .2 0 .4.3.5.1.1.2.2.5.2.2 0 .4 0 .6-.2l.2.2h.4l-.3-.5.2-.7h-.3c0 .2 0 .3-.2.4l-.5-.5.2-.1.3-.2v-.3l-.1-.4a.6.6 0 0 0-.4-.2c-.2 0-.4 0-.5.2l-.2.5v.2l.3.3c-.2 0-.3.2-.4.3zm1.1.5-.4.2-.3-.1-.1-.3c0-.1 0-.3.2-.3l.6.5zm-.5-1-.1-.4v-.2h.5v.4l-.3.2zm4 1.3-.7.2-.5-.1a.7.7 0 0 1-.3-.4l-.1-.6V29.8l.4-.3c.2-.2.4-.2.5-.2l.7.2c.2.2.3.4.3.7h-.4l-.2-.4-.3-.1-.4.1c-.2.2-.2.4-.2.6v.2l.1.7.4.2c.2 0 .3 0 .4-.2l.1-.3h.5c0 .3-.1.5-.3.6zm2.5-.3v-1.5a1 1 0 0 0-.9-.5c-.2 0-.4 0-.5.2-.2 0-.3.2-.4.4l-.1.6v.1l.1.7c0 .2.2.3.4.4l.5.1.5-.1.4-.4zm-.5-1.4.2.6v.1c0 .3 0 .5-.2.7l-.4.2-.5-.2v-1.5l.5-.1c.2 0 .3 0 .4.2z"/></symbol>

<symbol id="customer-logo-six" viewBox="0 0 67 32"><path d="M33.7 15.2a2.1 2.1 0 0 1-.4-1.4v-2c0-.6.1-1.1.4-1.5a2 2 0 0 1 1.4-.5c.7 0 1.2.2 1.5.4.3.4.4.8.4 1.2v.5h-1.2V11l-.2-.3a.7.7 0 0 0-.4-.1l-.4.1c-.2 0-.2.2-.2.3v3.7l.3.2h.3l.4-.1.2-.3v-1H37v.5c0 .4 0 .9-.4 1.3-.3.3-.7.4-1.4.4s-1.2-.1-1.4-.5zm5 0c-.4-.3-.6-.7-.6-1.4v-2.1c0-.6.2-1.1.5-1.5.3-.2.7-.4 1.4-.4s1.2.2 1.5.5c.3.3.5.7.5 1.4V14c0 .5-.2 1-.5 1.4-.3.3-.8.4-1.4.4-.7 0-1.2-.1-1.5-.5zm1.9-.5.1-.6v-2.7l-.1-.6-.2-.1a.7.7 0 0 0-.4 0 .7.7 0 0 0-.3 0l-.2.1c-.1.2-.2.4-.1.6v2.7l.1.7.3.1a.8.8 0 0 0 .6 0l.2-.2zm2.8-4.7h1.3l.9 3.9 1-4h1.2v5.7H47l-.1-4-1 4h-.7l-.9-4-.2 4h-1l.2-5.6zm5.9 0h2c1.1 0 1.7.5 1.7 1.5s-.7 1.6-1.8 1.6h-.7v2.5h-1.2V10zm1.7 2.4h.3l.3-.2.2-.7V11l-.1-.1-.2-.2h-1v1.7h.5zm3.8-2.4H56l1.4 5.6h-1.2l-.2-1.3h-1.2l-.3 1.3h-1.2l1.5-5.6zm1 3.7-.5-2.5-.4 2.5h1zm2.6-3.7h.8l1.7 3.2V10h1v5.6H61l-1.7-3.4v3.4h-1V10zm5.8 3.5L63 10H64l.9 2.2.7-2.3h1.1l-1.3 3.5v2.2h-1.2v-2zm-28.6 4.6v.4h-1v2.3h-.5v-2.3h-1V18h2.5zm3 2.7h-.4l-.3-.7h-1.3l-.3.7h-.5L37 18h.5l1.2 2.7zm-2-.9h1.2l-.5-1v-.3.1l-.1.1-.5 1.1zm4.1.7h.3l.4-.1h.1v-.7H41v-.2h.9v1l-.8.2h-.4l-.6-.1-.5-.2-.3-.4-.1-.6.1-.6.3-.4.5-.2a2 2 0 0 1 1-.2c.2 0 .4.2.5.3h.2v.2h-.3l-.3-.1-.4-.2-.6.2-.3.1-.2.4v1l.3.3c.2.1.4.3.7.3zm3.9-.1h1.3v.3h-1.7V18h.4v2.4zm2.7.3h-.4V18h.5v2.7zm1.6-2.7v.1l1.8 2v-2h.4v2.6h-.4l-1.8-2v2h-.3v-2.6h.2zm5.1 0v.3h-1.4v1h1.2v.2h-1.2v.9H54v.3h-1.8V18H54zM10.8 2l18.4 4.5V22l-18.4-4.4V1.9zM9.6.5v18l20.7 5V5.7L9.7.5z"/><path d="M20.7 31.8 0 26.8v-18L20.7 14v17.8z"/><path d="m10 1.7 18 4.4-7.7 6.7-18-4.5L10 1.7zM9.6.6 0 8.8 20.7 14l9.6-8.3L9.7.6zm12.2 30.2 8.6-7.3-8.6-2.1v9.4z"/></symbol>

<symbol id="customer-logo-three" viewBox="0 0 34 32"><path d="m5.6 31.3.3.2-.5.3-.7.1-.6-.1-.4-.3-.3-.4a1.5 1.5 0 0 1 0-1.2l.3-.4.5-.2a2 2 0 0 1 1.2 0l.5.2-.2.1h-.2l-.7-.2h-.5l-.3.3c0 .2-.2.2-.3.4v1l.3.2.3.2H5c.2 0 .4 0 .6-.2zm4.8-.8v.6l-.4.4-.5.3H8.2l-.4-.3-.3-.4a1.5 1.5 0 0 1 0-1.2l.3-.4.4-.2c.5-.2 1-.2 1.3 0l.5.2c.3.2.4.6.4 1zm-.4 0V30a1 1 0 0 0-.6-.6 1.5 1.5 0 0 0-1 0l-.3.2-.3.4v.8c.1.3.4.6.7.6h.9l.3-.2.2-.4v-.3zm3.7.5V31l1.2-1.7h.6v2.6H15v-2l-1 1.6h-.4l-1.3-1.7V32H12v-2.6h.5l1 1.6.1.2zm4-.1v1h-.4v-2.7h1.4l.4.2.2.2v.7l-.3.3-.3.2h-1zm0-.3h.8l.2-.2.2-.2v-.5l-.2-.2-.5-.2h-.5v1.2zm5.6 1.2H23l-.3-.7H21l-.3.7h-.5l1.3-2.6h.4l1.3 2.6zm-2-1h1.1l-.5-1-.1-.3v.3l-.5 1zm3.8-1.6 1.9 2v-2h.4v2.6H27l-1.9-2v2h-.3V29h.3zm5.3 1.6v1H30v-1L29 29.2h.4l.8 1.1v.2l.1-.1h.1l.8-1.1v-.1h.4l-1 1.6zm-17-6.2h.7c2.8-1 5-2.8 6.7-5 1.8-2.4 2.6-5 2.5-7.7l-3-2.6a13.4 13.4 0 0 1-1 8.5 16.1 16.1 0 0 1-5.8 6.8z"/><path d="M12.4 24.4c3-1.7 5-4.1 6.3-7s1.3-5.9.5-8.8l-4.3-3.8C16.2 7.1 17 10 17 13c0 4.4-1.7 8.4-4.6 11.4zm15-9.3c-.9 3.1-2.7 5.8-5.2 7.6l-2.5 1.5c2.2-.5 4.1-1.5 5.8-2.9 1.5-1.3 2.8-2.9 3.6-4.6l-1.7-1.5z"/><path d="M26.7 14.7 24 12.4c0 2.6-.9 5-2.4 7.2s-3.6 3.9-6.2 5h1.7a16 16 0 0 0 6.1-4 13 13 0 0 0 3.3-5.8v-.1zM12.8 3.2 9.8.5C7 1.5 4.8 3 3 5.1c-1.6 2-2.6 4.4-2.6 7 0 3 1.1 5.6 3 7.7 2 2.3 4.9 3.8 8 4.6a16.1 16.1 0 0 0 1.2-21.2zm20.8 11c0-3.2-1.5-6.4-4.2-8.7a15.5 15.5 0 0 0-15.3-2.9l18.6 16.1c.6-1.4.9-3 .9-4.5z"/></symbol>

<symbol id="customer-logo-two" viewBox="0 0 24 32"><path d="M9.8 1.8h.5c.7 0 1.5.1 2.2.3V.4h.1L9.4 0H9C5.7 0 2.6 1 0 2.5v17.1h-.1c2.5-1.3 5.3-2.1 8.3-2.3H9v-1.8c-2.3 0-4.6.5-6.5 1.2l-.6.2V3.4H2c2-1 4.2-1.6 6.3-1.6h1.5zm3 1.8h1.3a19 19 0 0 0 9.2-2.4v17a17.8 17.8 0 0 1-12.7 2h.1v-17l2.2.4zm8.7 0-.6.3-1.7.5a20.2 20.2 0 0 1-6.3.6h-.4v13.7h.4l1.2.1c2.6 0 5-.6 7.1-1.7h.2V3.6zM1.6 25.7a.9.9 0 0 0-.6-.3H.6a1 1 0 0 0-.6.9v2.3l.1.5.2.3.4.2h.6c.4-.2.6-.5.6-1v-.2h-.6v.6L1 29H1L.6 29l-.1-.3v-2.5A.3.3 0 0 1 1 26l.2.2.1.3v.2H2v-.3a1 1 0 0 0-.3-.7zm3.6 0a1 1 0 0 0-1-.2c-.2 0-.3 0-.3.2l-.3.3v3c0 .2.1.3.3.3 0 .2.1.2.3.2a1 1 0 0 0 .7 0c.1 0 .2 0 .3-.2.2-.1.3-.4.3-.7V26c0-.2-.2-.3-.3-.3zm-.2 3-.2.2a.4.4 0 0 1-.6 0v-2.8a.4.4 0 0 1 .6 0l.2.3v2.2zm4.9.9v-4.2h-.6l-.7 2.3-.8-2.3h-.6v4.2h.6V27l.6 1.9h.3l.6-1.9v2.6h.6zm3.4-3.9-.4-.2h-1.3v4h.6V28h.3c.2 0 .4 0 .5-.2l.3-.3.2-.3V26l-.2-.4zM13 27v.3l-.3.2a.6.6 0 0 1-.3 0h-.2V26h.5l.2.2v.8zm3-1.5h-.4l-1 4.2h.7l.2-1h.7l.2 1h.6l-1-4.2zm-.5 2.7.3-1.5.3 1.5h-.6zM20 28l-1-2.6h-.5v4.2h.6V27l1 2.5h.5v-4.2H20V28zm3.6-2.6-.4 1.6-.6-1.6H22l.9 2.4v1.8h.6v-1.8l.8-2.4h-.7zM0 30.8h.3v.8h.2v-.9h.3H0zm2.4-.2-.3 1h.1v-.3h.5v.3H3l-.4-1h-.2zm0 .6v-.4l.2.4h-.3zm2.4 0H5v.1l-.2.1h-.2l-.1-.3c0-.2 0-.4.3-.4l.2.2h.2c0-.2-.2-.3-.4-.3h-.4a.5.5 0 0 0-.1.5l.1.4a.5.5 0 0 0 .4 0l.4-.1V31h-.4v.2zm2.4-.6H7v1h.7v-.2h-.5v-.8zm2 0h-.1v1h.1v-1zm2 .6-.3-.6h-.2v1h.2V31l.3.6h.2v-1h-.2v.6zm1.8 0h.5V31H13v-.3h.6-.7v.9h.7v-.2H13v-.2zm4.5-.2h-.4v-.4h-.2v1h.2v-.4h.3v.4h.2v-1 .4zm1.8.2h.4V31h-.4v-.3h.6-.8v.9h.8v-.2h-.6v-.2zm2.4 0c.2 0 .3-.2.3-.3v-.2a.5.5 0 0 0-.4 0h-.4v.9h.2v-.4h.2l.3.4h.2l-.1-.3-.3-.1zm-.1-.2h-.2v-.2h.3a.1.1 0 1 1 0 .2s-.1 0-.1 0zm2 .2h.5V31h-.5v-.3h.6-.8v.9h.8v-.2h-.6v-.2z"/></symbol>

<symbol id="diagram" viewBox="0 0 32 32"><path fill="#2196f3" style="fill:var(--color2, #2196f3)" d="M15 15h1v4.8h-1V15zM19.2 17.1h1v2.7h-1V17zM10.7 18.7h1v1h-1v-1zM7.5 18.2h1v1.6h-1v-1.6z"/><path fill="#212121" style="fill:var(--color1, #212121)" d="M1.6 28.3h25.6c.9 0 1.6-.7 1.6-1.6v-2.1c0-1-.7-1.6-1.6-1.6h-.5V9.7l3-2.9a1.6 1.6 0 1 0-.8-.8l-2.2 2.2V7c0-1-.8-1.6-1.6-1.6H3.7c-.9 0-1.6.7-1.6 1.6v16h-.5c-.9 0-1.6.7-1.6 1.6v2c0 1 .7 1.7 1.6 1.7zM30.4 4.8a.5.5 0 1 1 0 1.1.5.5 0 0 1 0-1zM3.2 7c0-.3.2-.6.5-.6h21.4c.2 0 .5.3.5.6v2.2l-1 1V8c0-.3-.3-.5-.6-.5H4.8c-.3 0-.5.2-.5.5v13.4c0 .3.2.5.5.5H24c.3 0 .5-.2.5-.5v-9.7l1-1V23H3.3V7zM8 13.9a1.6 1.6 0 1 0 1.1 2.7l1.9 1 .6-.1 4-4.5 3.8 3 .7-.1 3.4-3.2v8.1H5.3V8.6h18.2v2.6l-3.8 3.6-4-3a.5.5 0 0 0-.6.1l-4 4.5-1.5-.7v-.2c0-.9-.7-1.6-1.6-1.6zm.5 1.6a.5.5 0 1 1-1 0 .5.5 0 0 1 1 0zm3.2 8.5h5.4v.6c0 .3-.3.5-.6.5h-4.2a.5.5 0 0 1-.6-.5V24zm-10.6.6c0-.3.2-.6.5-.6h9v.6c0 .8.8 1.6 1.7 1.6h4.2c1 0 1.6-.8 1.6-1.6V24h9c.4 0 .6.3.6.6v2c0 .4-.2.6-.5.6H1.6a.5.5 0 0 1-.5-.5v-2.1z"/></symbol>

<symbol id="envelope" viewBox="0 0 43 32"><path d="M38.7 0H4C1.9 0 0 1.9 0 4v24c0 2.1 1.9 4 4 4h34.7c2.1 0 4-1.9 4-4V4c0-2.1-1.9-4-4-4zm0 2.7h.5L21.3 18 3.5 2.7h35.2zm0 26.6H4c-.7 0-1.3-.6-1.3-1.3V5.6l17.8 15.5.8.2.8-.2L40 5.3v22.4c0 .8-.5 1.4-1.3 1.4z"/></symbol>

<symbol id="facebook-icon" viewBox="0 0 32 32"><path d="M21.3 5.3h3v-5C23.6.1 22 0 20 0c-4.2 0-7.1 2.6-7.1 7.5V12H8.2v5.7H13V32h5.7V17.7h4.5l.7-5.7h-5.2V8c0-1.6.4-2.7 2.7-2.7z"/></symbol>

<symbol id="instagram-icon" viewBox="0 0 32 32"><path d="M32 9.4c0-1.6-.3-2.8-.8-3.8-.3-1.1-1-2-1.8-2.9A8 8 0 0 0 26.6.8 105.7 105.7 0 0 0 5 .8h.5a9 9 0 0 0-2.9 2A8 8 0 0 0 1 5.3C.5 6.6 0 7.7 0 9.6a106.3 106.3 0 0 0 .9 17.7l-.1-.6c.4 1 1 2 1.8 2.7a8 8 0 0 0 2.8 2c1 .3 2.1.6 3.9.6a112.7 112.7 0 0 0 17.6-.7h-.5c2.2-.8 4-2.5 4.8-4.7l.6-3.9A113.7 113.7 0 0 0 32 9.3v.3zm-2.9 13c0 1.6-.3 2.4-.6 3a4.8 4.8 0 0 1-3 3c-.5.2-1.3.6-3 .6a108.1 108.1 0 0 1-16.4-.6h.5c-.7-.2-1.3-.6-1.8-1a6 6 0 0 1-1.1-2c-.3-.4-.7-1.4-.7-3A109.7 109.7 0 0 1 3.7 6v.6c.1-.7.6-1.3 1.1-1.8.5-.6 1.1-1 1.8-1.3.6-.1 1.6-.5 3.2-.5a108 108 0 0 1 16.1.6h-.5a4 4 0 0 1 2 1.2c.4.5 1 1.1 1 1.8.4.6.6 1.4.7 3l.2 6.4-.2 6.7v-.3z"/><path d="M16 7.8h-1.1A8.2 8.2 0 1 0 16 24a8.2 8.2 0 0 0 0-16zm0 13.5a5.3 5.3 0 0 1 0-10.6 5.3 5.3 0 0 1 0 10.6zM26.6 7.5a2 2 0 0 1-3.9 0 2 2 0 0 1 3.9 0z"/></symbol>

<symbol id="linkedin-icon" viewBox="0 0 32 32"><path d="M32 32V20.3c0-5.7-1.3-10.2-8-10.2a7 7 0 0 0-6.2 3.5v-3h-6.6V32h6.6V21.4c0-2.8.4-5.4 4-5.4 3.3 0 3.5 3.2 3.5 5.6V32H32zM.5 10.6h6.7V32H.5V10.6zM3.8 0C1.8 0 0 1.6 0 3.8 0 6 1.6 7.7 3.8 7.7a3.8 3.8 0 1 0 0-7.7z"/></symbol>

<symbol id="telephone" viewBox="0 0 20 32"><path d="M17 0H3a3 3 0 0 0-3 3v26a3 3 0 0 0 3 3h14a3 3 0 0 0 3-3V3a3 3 0 0 0-3-3zM3 2h14c.6 0 1 .4 1 1v21H2V3c0-.6.4-1 1-1zm14 28H3a1 1 0 0 1-1-1v-3h16v3c0 .6-.4 1-1 1z"/></symbol>

<symbol id="twitter-icon" viewBox="0 0 32 32"><path d="M32 6c-1.1.6-2.4.9-3.8 1 1.3-.7 2.3-2 2.8-3.4-1.2.7-2.5 1.2-4.1 1.5a6.5 6.5 0 0 0-11.2 6A18.5 18.5 0 0 1 2.2 4c-.5 1-.9 2.1-.9 3.4 0 2.3 1.2 4.3 3 5.4-1.1 0-2.1-.2-3-.8 0 3.3 2.2 6 5.3 6.5a6.3 6.3 0 0 1-3.1.1c1 2.7 3.2 4.7 6.3 4.7A13 13 0 0 1-.1 26H0a18 18 0 0 0 10 2.7A18.6 18.6 0 0 0 28.7 9.6c1.5-1 2.4-2 3.4-3.4z"/></symbol>
</defs>
</svg>