<!-- Generated by IcoMoon.io -->
<svg version="1.1" xmlns="http://www.w3.org/2000/svg" width="1024" height="1024" viewBox="0 0 1024 1024">
<title>twitter-icon</title>
<g id="icomoon-ignore">
</g>
<path d="M1024 302.080c0-51.2-10.24-92.16-25.6-122.88-10.24-35.84-30.72-66.56-56.32-92.16-25.286-26.322-56.028-47.199-90.428-60.835l-1.732-0.605c-100.545-10.279-217.268-16.141-335.36-16.141-118.094 0-234.819 5.862-349.9 17.312l14.54-1.171c-35.84 15.36-66.56 35.84-92.16 61.44-23.856 24.192-42.949 53.15-55.714 85.309l-0.606 1.731c-15.36 35.84-30.72 71.68-30.72 133.12-1.133 33.212-1.778 72.246-1.778 111.431 0 153.842 9.949 305.36 29.238 453.947l-1.86-17.538c13.371 33.89 32.464 62.848 56.349 87.070l-0.029-0.030c25.286 26.322 56.028 47.199 90.428 60.835l1.732 0.605c30.72 10.24 66.56 20.48 122.88 20.48 40.040 1.533 87.061 2.407 134.287 2.407 145.698 0 289.455-8.314 430.821-24.493l-17.268 1.607c71.273-27.057 126.543-82.326 153-151.807l0.6-1.793 20.48-122.88c5.546-76.488 8.707-165.713 8.707-255.675 0-57.739-1.302-115.174-3.879-172.277l0.291 8.112zM931.84 716.8c0 51.2-10.24 76.8-20.48 97.28-15.36 46.080-51.2 81.92-97.28 97.28-15.36 5.12-40.96 15.36-92.16 15.36-44.213 1.941-96.071 3.047-148.187 3.047-128.132 0-254.703-6.686-379.383-19.727l15.57 1.32c-22.020-8.116-40.82-20.328-56.319-35.839l-0.001-0.001c-15.36-20.48-30.72-40.96-35.84-61.44-10.24-15.36-20.48-46.080-20.48-97.28-1.036-32.267-1.627-70.206-1.627-108.284 0-140.433 8.031-278.99 23.659-415.237l-1.552 16.641c5.12-20.48 20.48-40.96 35.84-56.32 15.36-20.48 35.84-30.72 56.32-40.96 20.48-5.12 51.2-15.36 102.4-15.36 41.971-1.748 91.22-2.743 140.701-2.743 127.16 0 252.785 6.575 376.553 19.405l-15.494-1.301c25.6 10.24 46.080 20.48 61.44 40.96 15.36 15.36 30.72 35.84 35.84 56.32 10.24 20.48 15.36 46.080 20.48 97.28 3.704 61.201 5.815 132.754 5.815 204.8 0 72.044-2.111 143.595-6.273 214.594l0.459-9.794z"></path>
<path d="M512 250.88c-10.959-1.629-23.608-2.56-36.474-2.56-144.213 0-261.12 116.907-261.12 261.12s116.907 261.12 261.12 261.12c12.866 0 25.515-0.931 37.883-2.728l-1.409 0.168c120.418-24.841 209.665-129.998 209.665-256s-89.246-231.159-207.975-255.708l-1.69-0.292zM512 680.96c-93.314 0-168.96-75.646-168.96-168.96s75.646-168.96 168.96-168.96v0c93.314 0 168.96 75.646 168.96 168.96s-75.646 168.96-168.96 168.96v0zM849.92 240.64c0 33.932-27.508 61.44-61.44 61.44s-61.44-27.508-61.44-61.44v0c0-33.932 27.508-61.44 61.44-61.44s61.44 27.508 61.44 61.44v0z"></path>
</svg>
